<svg xmlns="http://www.w3.org/2000/svg" xmlns:xlink="http://www.w3.org/1999/xlink" xmlns:inkscape="http://www.inkscape.org/namespaces/inkscape" version="1.1" width="576" height="259.2" viewBox="0 0 576 259.2">
<defs>
<clipPath id="clip_0">
<path transform="matrix(1,0,0,-1,0,259.2)" d="M72.02 33.064H493.72V248.4H72.02Z"/>
</clipPath>
<clipPath id="clip_1">
<path transform="matrix(1,0,0,-1,0,259.2)" d="M72.02 33.064H493.72V248.4H72.02Z"/>
</clipPath>
<clipPath id="clip_2">
<path transform="matrix(1,0,0,-1,0,259.2)" d="M72.02 33.064H493.72V248.4H72.02Z"/>
</clipPath>
<clipPath id="clip_3">
<path transform="matrix(1,0,0,-1,0,259.2)" d="M72.02 33.064H493.72V248.4H72.02Z"/>
</clipPath>
<clipPath id="clip_4">
<path transform="matrix(1,0,0,-1,0,259.2)" d="M72.02 33.064H493.72V248.4H72.02Z"/>
</clipPath>
<clipPath id="clip_5">
<path transform="matrix(1,0,0,-1,0,259.2)" d="M72.02 33.064H493.72V248.4H72.02Z"/>
</clipPath>
<clipPath id="clip_6">
<path transform="matrix(1,0,0,-1,0,259.2)" d="M72.02 33.064H493.72V248.4H72.02Z"/>
</clipPath>
<clipPath id="clip_7">
<path transform="matrix(1,0,0,-1,0,259.2)" d="M72.02 33.064H493.72V248.4H72.02Z"/>
</clipPath>
<clipPath id="clip_8">
<path transform="matrix(1,0,0,-1,0,259.2)" d="M72.02 33.064H493.72V248.4H72.02Z"/>
</clipPath>
<clipPath id="clip_9">
<path transform="matrix(1,0,0,-1,0,259.2)" d="M72.02 33.064H493.72V248.4H72.02Z"/>
</clipPath>
<clipPath id="clip_10">
<path transform="matrix(.0091,0,0,-.0091,378.60307,238.3454)" d="M-1021-463H1794V1233H-1021Z"/>
</clipPath>
<clipPath id="clip_11">
<path transform="matrix(1,0,0,-1,0,259.2)" d="M72.02 33.064H493.72V248.4H72.02Z"/>
</clipPath>
<clipPath id="clip_12">
<path transform="matrix(1,0,0,-1,0,259.2)" d="M72.02 33.064H493.72V248.4H72.02Z"/>
</clipPath>
<clipPath id="clip_13">
<path transform="matrix(1,0,0,-1,0,259.2)" d="M72.02 33.064H493.72V248.4H72.02Z"/>
</clipPath>
<clipPath id="clip_14">
<path transform="matrix(1,0,0,-1,0,259.2)" d="M72.02 33.064H493.72V248.4H72.02Z"/>
</clipPath>
<clipPath id="clip_15">
<path transform="matrix(1,0,0,-1,0,259.2)" d="M72.02 33.064H493.72V248.4H72.02Z"/>
</clipPath>
<clipPath id="clip_16">
<path transform="matrix(1,0,0,-1,0,259.2)" d="M72.02 33.064H493.72V248.4H72.02Z"/>
</clipPath>
<clipPath id="clip_17">
<path transform="matrix(1,0,0,-1,0,259.2)" d="M72.02 33.064H493.72V248.4H72.02Z"/>
</clipPath>
<clipPath id="clip_18">
<path transform="matrix(1,0,0,-1,0,259.2)" d="M72.02 33.064H493.72V248.4H72.02Z"/>
</clipPath>
<clipPath id="clip_19">
<path transform="matrix(1,0,0,-1,0,259.2)" d="M72.02 33.064H493.72V248.4H72.02Z"/>
</clipPath>
<clipPath id="clip_20">
<path transform="matrix(1,0,0,-1,0,259.2)" d="M72.02 33.064H493.72V248.4H72.02Z"/>
</clipPath>
<clipPath id="clip_21">
<path transform="matrix(1,0,0,-1,0,259.2)" d="M72.02 33.064H493.72V248.4H72.02Z"/>
</clipPath>
<clipPath id="clip_22">
<path transform="matrix(1,0,0,-1,0,259.2)" d="M72.02 33.064H493.72V248.4H72.02Z"/>
</clipPath>
<clipPath id="clip_23">
<path transform="matrix(1,0,0,-1,0,259.2)" d="M72.02 33.064H493.72V248.4H72.02Z"/>
</clipPath>
<clipPath id="clip_24">
<path transform="matrix(1,0,0,-1,0,259.2)" d="M72.02 33.064H493.72V248.4H72.02Z"/>
</clipPath>
<clipPath id="clip_25">
<path transform="matrix(1,0,0,-1,0,259.2)" d="M72.02 33.064H493.72V248.4H72.02Z"/>
</clipPath>
<clipPath id="clip_26">
<path transform="matrix(1,0,0,-1,0,259.2)" d="M72.02 33.064H493.72V248.4H72.02Z"/>
</clipPath>
<clipPath id="clip_27">
<path transform="matrix(1,0,0,-1,0,259.2)" d="M72.02 33.064H493.72V248.4H72.02Z"/>
</clipPath>
<clipPath id="clip_28">
<path transform="matrix(1,0,0,-1,0,259.2)" d="M72.02 33.064H493.72V248.4H72.02Z"/>
</clipPath>
<clipPath id="clip_29">
<path transform="matrix(1,0,0,-1,0,259.2)" d="M72.02 33.064H493.72V248.4H72.02Z"/>
</clipPath>
<clipPath id="clip_30">
<path transform="matrix(1,0,0,-1,0,259.2)" d="M72.02 33.064H493.72V248.4H72.02Z"/>
</clipPath>
<clipPath id="clip_31">
<path transform="matrix(1,0,0,-1,0,259.2)" d="M72.02 33.064H493.72V248.4H72.02Z"/>
</clipPath>
<clipPath id="clip_32">
<path transform="matrix(1,0,0,-1,0,259.2)" d="M72.02 33.064H493.72V248.4H72.02Z"/>
</clipPath>
</defs>
<path transform="matrix(1,0,0,-1,0,259.2)" d="M0 0H576V259.2H0Z" fill="#ffffff"/>
<path transform="matrix(1,0,0,-1,0,259.2)" d="M72.02 33.064H493.72V248.4H72.02Z" fill="#ffffff"/>
<g clip-path="url(#clip_0)">
<path transform="matrix(1,0,0,-1,0,259.2)" d="M107.16167 33.064H123.135158V196.2464H107.16167Z" fill="#87cefa"/>
</g>
<g clip-path="url(#clip_1)">
<path transform="matrix(1,0,0,-1,0,259.2)" d="M187.0291 33.064H203.00258V192.02701H187.0291Z" fill="#87cefa"/>
</g>
<g clip-path="url(#clip_2)">
<path transform="matrix(1,0,0,-1,0,259.2)" d="M266.8965 33.064H282.87V183.04854H266.8965Z" fill="#87cefa"/>
</g>
<g clip-path="url(#clip_3)">
<path transform="matrix(1,0,0,-1,0,259.2)" d="M346.76396 33.064H362.73744V157.63408H346.76396Z" fill="#87cefa"/>
</g>
<g clip-path="url(#clip_4)">
<path transform="matrix(1,0,0,-1,0,259.2)" d="M426.63139 33.064H442.60487V146.69312H426.63139Z" fill="#87cefa"/>
</g>
<g clip-path="url(#clip_5)">
<path transform="matrix(1,0,0,-1,0,259.2)" d="M91.18818 33.064H107.16167V220.97397H91.18818Z" fill="#1e90ff"/>
</g>
<g clip-path="url(#clip_6)">
<path transform="matrix(1,0,0,-1,0,259.2)" d="M171.0556 33.064H187.0291V198.01265H171.0556Z" fill="#1e90ff"/>
</g>
<g clip-path="url(#clip_7)">
<path transform="matrix(1,0,0,-1,0,259.2)" d="M250.92304 33.064H266.8965V186.1395H250.92304Z" fill="#1e90ff"/>
</g>
<g clip-path="url(#clip_8)">
<path transform="matrix(1,0,0,-1,0,259.2)" d="M330.79048 33.064H346.76396V165.58223H330.79048Z" fill="#1e90ff"/>
</g>
<g clip-path="url(#clip_9)">
<path transform="matrix(1,0,0,-1,0,259.2)" d="M410.65788 33.064H426.63139V153.46376H410.65788Z" fill="#1e90ff"/>
</g>
<path transform="matrix(1,0,0,-1,0,259.2)" d="M123.135158 33.064V29.564"/>
<path transform="matrix(1,0,0,-1,0,259.2)" stroke-width=".8" stroke-linecap="butt" stroke-linejoin="round" fill="none" stroke="#000000" d="M123.135158 33.064V29.564"/>
<text xml:space="preserve" transform="matrix(1 0 -0 1 109.81484 243.01102)" font-size="13" font-family="DejaVuSans"><tspan y="0" x="0 7.8390009 16.913002">PCN</tspan></text>
<path transform="matrix(1,0,0,-1,0,259.2)" d="M203.00258 33.064V29.564"/>
<path transform="matrix(1,0,0,-1,0,259.2)" stroke-width=".8" stroke-linecap="butt" stroke-linejoin="round" fill="none" stroke="#000000" d="M203.00258 33.064V29.564"/>
<text xml:space="preserve" transform="matrix(1 0 -0 1 183.72914 243.01102)" font-size="13" font-family="DejaVuSans"><tspan y="0" x="0 7.3858759 15.341877 18.955878 27.197876 33.234628">PoinTr</tspan></text>
<path transform="matrix(1,0,0,-1,0,259.2)" d="M282.87 33.064V29.564"/>
<path transform="matrix(1,0,0,-1,0,259.2)" stroke-width=".8" stroke-linecap="butt" stroke-linejoin="round" fill="none" stroke="#000000" d="M282.87 33.064V29.564"/>
<text xml:space="preserve" transform="matrix(1 0 -0 1 251.09656 243.01102)" font-size="13" font-family="DejaVuSans"><tspan y="0" x="0 7.3858759 15.341877 18.955878 27.197876 32.293878 40.56188 48.45388 56.44888">Point2Vec</tspan></text>
<path transform="matrix(1,0,0,-1,0,259.2)" d="M362.73744 33.064V29.564"/>
<path transform="matrix(1,0,0,-1,0,259.2)" stroke-width=".8" stroke-linecap="butt" stroke-linejoin="round" fill="none" stroke="#000000" d="M362.73744 33.064V29.564"/>
<text xml:space="preserve" transform="matrix(1 0 -0 1 320.23744 243.43289)" font-size="13" font-family="DejaVuSans"><tspan y="-.1109375" x="0 3.8339844 13.058594 22.091309 26.782227 36.79248 47.024904">INR-DOM</tspan></text>
<text xml:space="preserve" transform="matrix(1 0 -0 1 320.23744 243.43289)" font-size="9.1" font-family="DejaVuSans"><tspan y="-5.0875" x="65.99043 70.7315 76.00132 81.59995">skel</tspan></text>
<g clip-path="url(#clip_10)">
<path transform="matrix(.0091,0,0,-.0091,378.60307,238.3454)" d="M106 355H732V272H106V355Z"/>
</g>
<path transform="matrix(1,0,0,-1,0,259.2)" d="M442.60487 33.064V29.564"/>
<path transform="matrix(1,0,0,-1,0,259.2)" stroke-width=".8" stroke-linecap="butt" stroke-linejoin="round" fill="none" stroke="#000000" d="M442.60487 33.064V29.564"/>
<text xml:space="preserve" transform="matrix(1 0 -0 1 413.48768 243.01102)" font-size="13" font-family="DejaVuSans"><tspan y="0" x="0 3.8350003 13.559 22.078377 26.771378 36.78138 47.012384">INR-DOM</tspan></text>
<path transform="matrix(1,0,0,-1,0,259.2)" d="M72.02 33.064H68.52"/>
<path transform="matrix(1,0,0,-1,0,259.2)" stroke-width=".8" stroke-linecap="butt" stroke-linejoin="round" fill="none" stroke="#000000" d="M72.02 33.064H68.52"/>
<text xml:space="preserve" transform="matrix(1 0 -0 1 29.36375 232.21414)" font-size="16" font-family="DejaVuSans"><tspan y="0" x="0 10.176001 15.264001 25.440003">0.00</tspan></text>
<path transform="matrix(1,0,0,-1,0,259.2)" d="M72.02 82.126659H68.52"/>
<path transform="matrix(1,0,0,-1,0,259.2)" stroke-width=".8" stroke-linecap="butt" stroke-linejoin="round" fill="none" stroke="#000000" d="M72.02 82.126659H68.52"/>
<text xml:space="preserve" transform="matrix(1 0 -0 1 29.36375 183.15149)" font-size="16" font-family="DejaVuSans"><tspan y="0" x="0 10.176001 15.264001 25.440003">0.01</tspan></text>
<path transform="matrix(1,0,0,-1,0,259.2)" d="M72.02 131.18932H68.52"/>
<path transform="matrix(1,0,0,-1,0,259.2)" stroke-width=".8" stroke-linecap="butt" stroke-linejoin="round" fill="none" stroke="#000000" d="M72.02 131.18932H68.52"/>
<text xml:space="preserve" transform="matrix(1 0 -0 1 29.36375 134.08882)" font-size="16" font-family="DejaVuSans"><tspan y="0" x="0 10.176001 15.264001 25.440003">0.02</tspan></text>
<path transform="matrix(1,0,0,-1,0,259.2)" d="M72.02 180.25197H68.52"/>
<path transform="matrix(1,0,0,-1,0,259.2)" stroke-width=".8" stroke-linecap="butt" stroke-linejoin="round" fill="none" stroke="#000000" d="M72.02 180.25197H68.52"/>
<text xml:space="preserve" transform="matrix(1 0 -0 1 29.36375 85.02617)" font-size="16" font-family="DejaVuSans"><tspan y="0" x="0 10.176001 15.264001 25.440003">0.03</tspan></text>
<path transform="matrix(1,0,0,-1,0,259.2)" d="M72.02 229.31462H68.52"/>
<path transform="matrix(1,0,0,-1,0,259.2)" stroke-width=".8" stroke-linecap="butt" stroke-linejoin="round" fill="none" stroke="#000000" d="M72.02 229.31462H68.52"/>
<text xml:space="preserve" transform="matrix(1 0 -0 1 29.36375 35.963518)" font-size="16" font-family="DejaVuSans"><tspan y="0" x="0 10.176001 15.264001 25.440003">0.04</tspan></text>
<text xml:space="preserve" transform="matrix(0 -1 1 0 22.035626 210.9524)" font-size="16" font-family="DejaVuSans"><tspan y="0" x="0 11.168 21.312 31.12 46.704004 52.336004 62.176004 68.752 73.84 86.159999 90.607997 98.94399 105.215999 115.023998 125.16799 133.96799 143.80799 148.89598 155.13599 166.30399 178.624">Chamfer Distance (CD)</tspan></text>
<g clip-path="url(#clip_11)">
<path transform="matrix(1,0,0,-1,0,259.2)" stroke-width="1.5" stroke-linecap="butt" stroke-linejoin="round" fill="none" stroke="#000000" d="M115.14841 181.5276V210.9652"/>
<path transform="matrix(1,0,0,-1,0,259.2)" stroke-width="1.5" stroke-linecap="butt" stroke-linejoin="round" fill="none" stroke="#000000" d="M195.01584 179.76134V204.29268"/>
<path transform="matrix(1,0,0,-1,0,259.2)" stroke-width="1.5" stroke-linecap="butt" stroke-linejoin="round" fill="none" stroke="#000000" d="M274.88328 178.14228V187.9548"/>
<path transform="matrix(1,0,0,-1,0,259.2)" stroke-width="1.5" stroke-linecap="butt" stroke-linejoin="round" fill="none" stroke="#000000" d="M354.75068 152.72782V162.54035"/>
<path transform="matrix(1,0,0,-1,0,259.2)" stroke-width="1.5" stroke-linecap="butt" stroke-linejoin="round" fill="none" stroke="#000000" d="M434.6181 141.78685V151.59938"/>
</g>
<g clip-path="url(#clip_12)">
<path transform="matrix(1,0,0,-1,0,259.2)" d="M120.14841 181.5276H110.14841"/>
<path transform="matrix(1,0,0,-1,0,259.2)" stroke-width="1" stroke-linecap="butt" stroke-linejoin="round" fill="none" stroke="#000000" d="M120.14841 181.5276H110.14841"/>
<path transform="matrix(1,0,0,-1,0,259.2)" d="M200.01584 179.76134H190.01584"/>
<path transform="matrix(1,0,0,-1,0,259.2)" stroke-width="1" stroke-linecap="butt" stroke-linejoin="round" fill="none" stroke="#000000" d="M200.01584 179.76134H190.01584"/>
<path transform="matrix(1,0,0,-1,0,259.2)" d="M279.88328 178.14228H269.88328"/>
<path transform="matrix(1,0,0,-1,0,259.2)" stroke-width="1" stroke-linecap="butt" stroke-linejoin="round" fill="none" stroke="#000000" d="M279.88328 178.14228H269.88328"/>
<path transform="matrix(1,0,0,-1,0,259.2)" d="M359.75068 152.72782H349.75068"/>
<path transform="matrix(1,0,0,-1,0,259.2)" stroke-width="1" stroke-linecap="butt" stroke-linejoin="round" fill="none" stroke="#000000" d="M359.75068 152.72782H349.75068"/>
<path transform="matrix(1,0,0,-1,0,259.2)" d="M439.6181 141.78685H429.6181"/>
<path transform="matrix(1,0,0,-1,0,259.2)" stroke-width="1" stroke-linecap="butt" stroke-linejoin="round" fill="none" stroke="#000000" d="M439.6181 141.78685H429.6181"/>
</g>
<g clip-path="url(#clip_13)">
<path transform="matrix(1,0,0,-1,0,259.2)" d="M120.14841 210.9652H110.14841"/>
<path transform="matrix(1,0,0,-1,0,259.2)" stroke-width="1" stroke-linecap="butt" stroke-linejoin="round" fill="none" stroke="#000000" d="M120.14841 210.9652H110.14841"/>
<path transform="matrix(1,0,0,-1,0,259.2)" d="M200.01584 204.29268H190.01584"/>
<path transform="matrix(1,0,0,-1,0,259.2)" stroke-width="1" stroke-linecap="butt" stroke-linejoin="round" fill="none" stroke="#000000" d="M200.01584 204.29268H190.01584"/>
<path transform="matrix(1,0,0,-1,0,259.2)" d="M279.88328 187.9548H269.88328"/>
<path transform="matrix(1,0,0,-1,0,259.2)" stroke-width="1" stroke-linecap="butt" stroke-linejoin="round" fill="none" stroke="#000000" d="M279.88328 187.9548H269.88328"/>
<path transform="matrix(1,0,0,-1,0,259.2)" d="M359.75068 162.54035H349.75068"/>
<path transform="matrix(1,0,0,-1,0,259.2)" stroke-width="1" stroke-linecap="butt" stroke-linejoin="round" fill="none" stroke="#000000" d="M359.75068 162.54035H349.75068"/>
<path transform="matrix(1,0,0,-1,0,259.2)" d="M439.6181 151.59938H429.6181"/>
<path transform="matrix(1,0,0,-1,0,259.2)" stroke-width="1" stroke-linecap="butt" stroke-linejoin="round" fill="none" stroke="#000000" d="M439.6181 151.59938H429.6181"/>
</g>
<g clip-path="url(#clip_14)">
<path transform="matrix(1,0,0,-1,0,259.2)" stroke-width="1.5" stroke-linecap="butt" stroke-linejoin="round" fill="none" stroke="#000000" d="M99.17493 203.80205V238.1459"/>
<path transform="matrix(1,0,0,-1,0,259.2)" stroke-width="1.5" stroke-linecap="butt" stroke-linejoin="round" fill="none" stroke="#000000" d="M179.04235 183.29386V212.73145"/>
<path transform="matrix(1,0,0,-1,0,259.2)" stroke-width="1.5" stroke-linecap="butt" stroke-linejoin="round" fill="none" stroke="#000000" d="M258.90977 176.32695V195.95203"/>
<path transform="matrix(1,0,0,-1,0,259.2)" stroke-width="1.5" stroke-linecap="butt" stroke-linejoin="round" fill="none" stroke="#000000" d="M338.7772 158.71347V172.451"/>
<path transform="matrix(1,0,0,-1,0,259.2)" stroke-width="1.5" stroke-linecap="butt" stroke-linejoin="round" fill="none" stroke="#000000" d="M418.64463 147.57625V159.35128"/>
</g>
<g clip-path="url(#clip_15)">
<path transform="matrix(1,0,0,-1,0,259.2)" d="M104.17493 203.80205H94.17493"/>
<path transform="matrix(1,0,0,-1,0,259.2)" stroke-width="1" stroke-linecap="butt" stroke-linejoin="round" fill="none" stroke="#000000" d="M104.17493 203.80205H94.17493"/>
<path transform="matrix(1,0,0,-1,0,259.2)" d="M184.04235 183.29386H174.04235"/>
<path transform="matrix(1,0,0,-1,0,259.2)" stroke-width="1" stroke-linecap="butt" stroke-linejoin="round" fill="none" stroke="#000000" d="M184.04235 183.29386H174.04235"/>
<path transform="matrix(1,0,0,-1,0,259.2)" d="M263.90977 176.32695H253.90978"/>
<path transform="matrix(1,0,0,-1,0,259.2)" stroke-width="1" stroke-linecap="butt" stroke-linejoin="round" fill="none" stroke="#000000" d="M263.90977 176.32695H253.90978"/>
<path transform="matrix(1,0,0,-1,0,259.2)" d="M343.7772 158.71347H333.7772"/>
<path transform="matrix(1,0,0,-1,0,259.2)" stroke-width="1" stroke-linecap="butt" stroke-linejoin="round" fill="none" stroke="#000000" d="M343.7772 158.71347H333.7772"/>
<path transform="matrix(1,0,0,-1,0,259.2)" d="M423.64463 147.57625H413.64463"/>
<path transform="matrix(1,0,0,-1,0,259.2)" stroke-width="1" stroke-linecap="butt" stroke-linejoin="round" fill="none" stroke="#000000" d="M423.64463 147.57625H413.64463"/>
</g>
<g clip-path="url(#clip_16)">
<path transform="matrix(1,0,0,-1,0,259.2)" d="M104.17493 238.1459H94.17493"/>
<path transform="matrix(1,0,0,-1,0,259.2)" stroke-width="1" stroke-linecap="butt" stroke-linejoin="round" fill="none" stroke="#000000" d="M104.17493 238.1459H94.17493"/>
<path transform="matrix(1,0,0,-1,0,259.2)" d="M184.04235 212.73145H174.04235"/>
<path transform="matrix(1,0,0,-1,0,259.2)" stroke-width="1" stroke-linecap="butt" stroke-linejoin="round" fill="none" stroke="#000000" d="M184.04235 212.73145H174.04235"/>
<path transform="matrix(1,0,0,-1,0,259.2)" d="M263.90977 195.95203H253.90978"/>
<path transform="matrix(1,0,0,-1,0,259.2)" stroke-width="1" stroke-linecap="butt" stroke-linejoin="round" fill="none" stroke="#000000" d="M263.90977 195.95203H253.90978"/>
<path transform="matrix(1,0,0,-1,0,259.2)" d="M343.7772 172.451H333.7772"/>
<path transform="matrix(1,0,0,-1,0,259.2)" stroke-width="1" stroke-linecap="butt" stroke-linejoin="round" fill="none" stroke="#000000" d="M343.7772 172.451H333.7772"/>
<path transform="matrix(1,0,0,-1,0,259.2)" d="M423.64463 159.35128H413.64463"/>
<path transform="matrix(1,0,0,-1,0,259.2)" stroke-width="1" stroke-linecap="butt" stroke-linejoin="round" fill="none" stroke="#000000" d="M423.64463 159.35128H413.64463"/>
</g>
<path transform="matrix(1,0,0,-1,0,259.2)" stroke-width=".8" stroke-linecap="square" stroke-miterlimit="10" stroke-linejoin="miter" fill="none" stroke="#000000" d="M72.02 33.064V248.4"/>
<path transform="matrix(1,0,0,-1,0,259.2)" stroke-width=".8" stroke-linecap="square" stroke-miterlimit="10" stroke-linejoin="miter" fill="none" stroke="#000000" d="M493.72 33.064V248.4"/>
<path transform="matrix(1,0,0,-1,0,259.2)" stroke-width=".8" stroke-linecap="square" stroke-miterlimit="10" stroke-linejoin="miter" fill="none" stroke="#000000" d="M72.02 33.064H493.72"/>
<path transform="matrix(1,0,0,-1,0,259.2)" stroke-width=".8" stroke-linecap="square" stroke-miterlimit="10" stroke-linejoin="miter" fill="none" stroke="#000000" d="M72.02 248.4H493.72"/>
<g>
<path transform="matrix(1,0,0,-1,0,259.2)" d="M370.9044 168.3H485.32C486.92 168.3 487.72 169.1 487.72 170.7V240C487.72 241.6 486.92 242.4 485.32 242.4H370.9044C369.30439 242.4 368.50437 241.6 368.50437 240V170.7C368.50437 169.1 369.30439 168.3 370.9044 168.3Z" fill="#ffffff" fill-opacity=".8"/>
<path transform="matrix(1,0,0,-1,0,259.2)" stroke-width="1" stroke-linecap="butt" stroke-miterlimit="10" stroke-linejoin="miter" fill="none" stroke="#cccccc" stroke-opacity=".8" d="M370.9044 168.3H485.32C486.92 168.3 487.72 169.1 487.72 170.7V240C487.72 241.6 486.92 242.4 485.32 242.4H370.9044C369.30439 242.4 368.50437 241.6 368.50437 240V170.7C368.50437 169.1 369.30439 168.3 370.9044 168.3Z"/>
</g>
<path transform="matrix(1,0,0,-1,0,259.2)" d="M373.30439 228.475H397.30439V236.875H373.30439Z" fill="#87cefa"/>
<text xml:space="preserve" transform="matrix(1 0 -0 1 406.9044 30.725007)" font-size="12" font-family="DejaVuSans"><tspan y="0" x="0 7.620001 15.000001 22.380002 29.988 33.804 42.18">Seen CD</tspan></text>
<path transform="matrix(1,0,0,-1,0,259.2)" d="M373.30439 210.85H397.30439V219.25H373.30439Z" fill="#1e90ff"/>
<text xml:space="preserve" transform="matrix(1 0 -0 1 406.9044 48.350008)" font-size="12" font-family="DejaVuSans"><tspan y="0" x="0 8.784 16.392 22.644001 30.024003 37.404005 45.012 48.828004 57.204004">Unseen CD</tspan></text>
<path transform="matrix(1,0,0,-1,0,259.2)" d="M373.30439 193.225H397.30439V201.625H373.30439Z" fill="#ffa07a"/>
<text xml:space="preserve" transform="matrix(1 0 -0 1 406.9044 65.975009)" font-size="12" font-family="DejaVuSans"><tspan y="0" x="0 7.620001 15.000001 22.380002 29.988 33.804 41.388 51.744005">Seen EMD</tspan></text>
<path transform="matrix(1,0,0,-1,0,259.2)" d="M373.30439 175.6H397.30439V184H373.30439Z" fill="#ff4500"/>
<text xml:space="preserve" transform="matrix(1 0 -0 1 406.9044 83.600009)" font-size="12" font-family="DejaVuSans"><tspan y="0" x="0 8.784 16.392 22.644001 30.024003 37.404005 45.012 48.828004 56.412004 66.768009">Unseen EMD</tspan></text>
<g clip-path="url(#clip_17)">
<path transform="matrix(1,0,0,-1,0,259.2)" d="M139.10865 33.064H155.08213V192.41819H139.10865Z" fill="#ffa07a"/>
</g>
<g clip-path="url(#clip_18)">
<path transform="matrix(1,0,0,-1,0,259.2)" d="M218.97606 33.064H234.94954V158.12239H218.97606Z" fill="#ffa07a"/>
</g>
<g clip-path="url(#clip_19)">
<path transform="matrix(1,0,0,-1,0,259.2)" d="M298.84349 33.064H314.81697V155.52423H298.84349Z" fill="#ffa07a"/>
</g>
<g clip-path="url(#clip_20)">
<path transform="matrix(1,0,0,-1,0,259.2)" d="M378.7109 33.064H394.6844V137.16385H378.7109Z" fill="#ffa07a"/>
</g>
<g clip-path="url(#clip_21)">
<path transform="matrix(1,0,0,-1,0,259.2)" d="M458.57835 33.064H474.55183V120.0506H458.57835Z" fill="#ffa07a"/>
</g>
<g clip-path="url(#clip_22)">
<path transform="matrix(1,0,0,-1,0,259.2)" d="M123.135158 33.064H139.10865V217.36058H123.135158Z" fill="#ff4500"/>
</g>
<g clip-path="url(#clip_23)">
<path transform="matrix(1,0,0,-1,0,259.2)" d="M203.00258 33.064H218.97606V179.94699H203.00258Z" fill="#ff4500"/>
</g>
<g clip-path="url(#clip_24)">
<path transform="matrix(1,0,0,-1,0,259.2)" d="M282.87 33.064H298.84349V178.73451H282.87Z" fill="#ff4500"/>
</g>
<g clip-path="url(#clip_25)">
<path transform="matrix(1,0,0,-1,0,259.2)" d="M362.73744 33.064H378.7109V148.92488H362.73744Z" fill="#ff4500"/>
</g>
<g clip-path="url(#clip_26)">
<path transform="matrix(1,0,0,-1,0,259.2)" d="M442.60487 33.064H458.57835V128.13956H442.60487Z" fill="#ff4500"/>
</g>
<path transform="matrix(1,0,0,-1,0,259.2)" d="M493.72 33.064H497.22"/>
<path transform="matrix(1,0,0,-1,0,259.2)" stroke-width=".8" stroke-linecap="butt" stroke-linejoin="round" fill="none" stroke="#000000" d="M493.72 33.064H497.22"/>
<text xml:space="preserve" transform="matrix(1 0 -0 1 500.72 232.21414)" font-size="16" font-family="DejaVuSans"><tspan y="0" x="0 10.176001 15.264001 25.440003 35.616006">0.000</tspan></text>
<path transform="matrix(1,0,0,-1,0,259.2)" d="M493.72 76.36677H497.22"/>
<path transform="matrix(1,0,0,-1,0,259.2)" stroke-width=".8" stroke-linecap="butt" stroke-linejoin="round" fill="none" stroke="#000000" d="M493.72 76.36677H497.22"/>
<text xml:space="preserve" transform="matrix(1 0 -0 1 500.72 188.91138)" font-size="16" font-family="DejaVuSans"><tspan y="0" x="0 10.176001 15.264001 25.440003 35.616006">0.025</tspan></text>
<path transform="matrix(1,0,0,-1,0,259.2)" d="M493.72 119.66953H497.22"/>
<path transform="matrix(1,0,0,-1,0,259.2)" stroke-width=".8" stroke-linecap="butt" stroke-linejoin="round" fill="none" stroke="#000000" d="M493.72 119.66953H497.22"/>
<text xml:space="preserve" transform="matrix(1 0 -0 1 500.72 145.60861)" font-size="16" font-family="DejaVuSans"><tspan y="0" x="0 10.176001 15.264001 25.440003 35.616006">0.050</tspan></text>
<path transform="matrix(1,0,0,-1,0,259.2)" d="M493.72 162.9723H497.22"/>
<path transform="matrix(1,0,0,-1,0,259.2)" stroke-width=".8" stroke-linecap="butt" stroke-linejoin="round" fill="none" stroke="#000000" d="M493.72 162.9723H497.22"/>
<text xml:space="preserve" transform="matrix(1 0 -0 1 500.72 102.30583)" font-size="16" font-family="DejaVuSans"><tspan y="0" x="0 10.176001 15.264001 25.440003 35.616006">0.075</tspan></text>
<path transform="matrix(1,0,0,-1,0,259.2)" d="M493.72 206.27507H497.22"/>
<path transform="matrix(1,0,0,-1,0,259.2)" stroke-width=".8" stroke-linecap="butt" stroke-linejoin="round" fill="none" stroke="#000000" d="M493.72 206.27507H497.22"/>
<text xml:space="preserve" transform="matrix(1 0 -0 1 500.72 59.003068)" font-size="16" font-family="DejaVuSans"><tspan y="0" x="0 10.176001 15.264001 25.440003 35.616006">0.100</tspan></text>
<text xml:space="preserve" transform="matrix(0 -1 1 0 562.72 238.06958)" font-size="16" font-family="DejaVuSans"><tspan y="0" x="0 10.112 19.920002 26.496003 32.768 42.912004 48.000005 61.808008 71.600009 81.07201 90.912 97.48801 101.88801 110.22401 115.312007 127.632 132.08 140.416 146.688 156.496 166.64 175.44 185.28 190.368 196.608 206.72 220.528 232.848">Earth Mover's Distance (EMD)</tspan></text>
<g clip-path="url(#clip_27)">
<path transform="matrix(1,0,0,-1,0,259.2)" stroke-width="1.5" stroke-linecap="butt" stroke-linejoin="round" fill="none" stroke="#000000" d="M147.09539 178.5613V206.27507"/>
<path transform="matrix(1,0,0,-1,0,259.2)" stroke-width="1.5" stroke-linecap="butt" stroke-linejoin="round" fill="none" stroke="#000000" d="M226.9628 151.19396V165.05083"/>
<path transform="matrix(1,0,0,-1,0,259.2)" stroke-width="1.5" stroke-linecap="butt" stroke-linejoin="round" fill="none" stroke="#000000" d="M306.83024 146.86368V164.18479"/>
<path transform="matrix(1,0,0,-1,0,259.2)" stroke-width="1.5" stroke-linecap="butt" stroke-linejoin="round" fill="none" stroke="#000000" d="M386.69767 131.96752V142.36019"/>
<path transform="matrix(1,0,0,-1,0,259.2)" stroke-width="1.5" stroke-linecap="butt" stroke-linejoin="round" fill="none" stroke="#000000" d="M466.56507 113.122158V126.97904"/>
</g>
<g clip-path="url(#clip_28)">
<path transform="matrix(1,0,0,-1,0,259.2)" d="M152.09539 178.5613H142.09539"/>
<path transform="matrix(1,0,0,-1,0,259.2)" stroke-width="1" stroke-linecap="butt" stroke-linejoin="round" fill="none" stroke="#000000" d="M152.09539 178.5613H142.09539"/>
<path transform="matrix(1,0,0,-1,0,259.2)" d="M231.9628 151.19396H221.9628"/>
<path transform="matrix(1,0,0,-1,0,259.2)" stroke-width="1" stroke-linecap="butt" stroke-linejoin="round" fill="none" stroke="#000000" d="M231.9628 151.19396H221.9628"/>
<path transform="matrix(1,0,0,-1,0,259.2)" d="M311.83024 146.86368H301.83024"/>
<path transform="matrix(1,0,0,-1,0,259.2)" stroke-width="1" stroke-linecap="butt" stroke-linejoin="round" fill="none" stroke="#000000" d="M311.83024 146.86368H301.83024"/>
<path transform="matrix(1,0,0,-1,0,259.2)" d="M391.69767 131.96752H381.69767"/>
<path transform="matrix(1,0,0,-1,0,259.2)" stroke-width="1" stroke-linecap="butt" stroke-linejoin="round" fill="none" stroke="#000000" d="M391.69767 131.96752H381.69767"/>
<path transform="matrix(1,0,0,-1,0,259.2)" d="M471.56507 113.122158H461.56507"/>
<path transform="matrix(1,0,0,-1,0,259.2)" stroke-width="1" stroke-linecap="butt" stroke-linejoin="round" fill="none" stroke="#000000" d="M471.56507 113.122158H461.56507"/>
</g>
<g clip-path="url(#clip_29)">
<path transform="matrix(1,0,0,-1,0,259.2)" d="M152.09539 206.27507H142.09539"/>
<path transform="matrix(1,0,0,-1,0,259.2)" stroke-width="1" stroke-linecap="butt" stroke-linejoin="round" fill="none" stroke="#000000" d="M152.09539 206.27507H142.09539"/>
<path transform="matrix(1,0,0,-1,0,259.2)" d="M231.9628 165.05083H221.9628"/>
<path transform="matrix(1,0,0,-1,0,259.2)" stroke-width="1" stroke-linecap="butt" stroke-linejoin="round" fill="none" stroke="#000000" d="M231.9628 165.05083H221.9628"/>
<path transform="matrix(1,0,0,-1,0,259.2)" d="M311.83024 164.18479H301.83024"/>
<path transform="matrix(1,0,0,-1,0,259.2)" stroke-width="1" stroke-linecap="butt" stroke-linejoin="round" fill="none" stroke="#000000" d="M311.83024 164.18479H301.83024"/>
<path transform="matrix(1,0,0,-1,0,259.2)" d="M391.69767 142.36019H381.69767"/>
<path transform="matrix(1,0,0,-1,0,259.2)" stroke-width="1" stroke-linecap="butt" stroke-linejoin="round" fill="none" stroke="#000000" d="M391.69767 142.36019H381.69767"/>
<path transform="matrix(1,0,0,-1,0,259.2)" d="M471.56507 126.97904H461.56507"/>
<path transform="matrix(1,0,0,-1,0,259.2)" stroke-width="1" stroke-linecap="butt" stroke-linejoin="round" fill="none" stroke="#000000" d="M471.56507 126.97904H461.56507"/>
</g>
<g clip-path="url(#clip_30)">
<path transform="matrix(1,0,0,-1,0,259.2)" stroke-width="1.5" stroke-linecap="butt" stroke-linejoin="round" fill="none" stroke="#000000" d="M131.12189 196.57524V238.1459"/>
<path transform="matrix(1,0,0,-1,0,259.2)" stroke-width="1.5" stroke-linecap="butt" stroke-linejoin="round" fill="none" stroke="#000000" d="M210.98932 171.28644V188.60755"/>
<path transform="matrix(1,0,0,-1,0,259.2)" stroke-width="1.5" stroke-linecap="butt" stroke-linejoin="round" fill="none" stroke="#000000" d="M290.85676 166.60974V190.85929"/>
<path transform="matrix(1,0,0,-1,0,259.2)" stroke-width="1.5" stroke-linecap="butt" stroke-linejoin="round" fill="none" stroke="#000000" d="M370.72419 143.72855V154.12122"/>
<path transform="matrix(1,0,0,-1,0,259.2)" stroke-width="1.5" stroke-linecap="butt" stroke-linejoin="round" fill="none" stroke="#000000" d="M450.59159 121.21111V135.068"/>
</g>
<g clip-path="url(#clip_31)">
<path transform="matrix(1,0,0,-1,0,259.2)" d="M136.12189 196.57524H126.121898"/>
<path transform="matrix(1,0,0,-1,0,259.2)" stroke-width="1" stroke-linecap="butt" stroke-linejoin="round" fill="none" stroke="#000000" d="M136.12189 196.57524H126.121898"/>
<path transform="matrix(1,0,0,-1,0,259.2)" d="M215.98932 171.28644H205.98932"/>
<path transform="matrix(1,0,0,-1,0,259.2)" stroke-width="1" stroke-linecap="butt" stroke-linejoin="round" fill="none" stroke="#000000" d="M215.98932 171.28644H205.98932"/>
<path transform="matrix(1,0,0,-1,0,259.2)" d="M295.85676 166.60974H285.85676"/>
<path transform="matrix(1,0,0,-1,0,259.2)" stroke-width="1" stroke-linecap="butt" stroke-linejoin="round" fill="none" stroke="#000000" d="M295.85676 166.60974H285.85676"/>
<path transform="matrix(1,0,0,-1,0,259.2)" d="M375.72419 143.72855H365.72419"/>
<path transform="matrix(1,0,0,-1,0,259.2)" stroke-width="1" stroke-linecap="butt" stroke-linejoin="round" fill="none" stroke="#000000" d="M375.72419 143.72855H365.72419"/>
<path transform="matrix(1,0,0,-1,0,259.2)" d="M455.59159 121.21111H445.59159"/>
<path transform="matrix(1,0,0,-1,0,259.2)" stroke-width="1" stroke-linecap="butt" stroke-linejoin="round" fill="none" stroke="#000000" d="M455.59159 121.21111H445.59159"/>
</g>
<g clip-path="url(#clip_32)">
<path transform="matrix(1,0,0,-1,0,259.2)" d="M136.12189 238.1459H126.121898"/>
<path transform="matrix(1,0,0,-1,0,259.2)" stroke-width="1" stroke-linecap="butt" stroke-linejoin="round" fill="none" stroke="#000000" d="M136.12189 238.1459H126.121898"/>
<path transform="matrix(1,0,0,-1,0,259.2)" d="M215.98932 188.60755H205.98932"/>
<path transform="matrix(1,0,0,-1,0,259.2)" stroke-width="1" stroke-linecap="butt" stroke-linejoin="round" fill="none" stroke="#000000" d="M215.98932 188.60755H205.98932"/>
<path transform="matrix(1,0,0,-1,0,259.2)" d="M295.85676 190.85929H285.85676"/>
<path transform="matrix(1,0,0,-1,0,259.2)" stroke-width="1" stroke-linecap="butt" stroke-linejoin="round" fill="none" stroke="#000000" d="M295.85676 190.85929H285.85676"/>
<path transform="matrix(1,0,0,-1,0,259.2)" d="M375.72419 154.12122H365.72419"/>
<path transform="matrix(1,0,0,-1,0,259.2)" stroke-width="1" stroke-linecap="butt" stroke-linejoin="round" fill="none" stroke="#000000" d="M375.72419 154.12122H365.72419"/>
<path transform="matrix(1,0,0,-1,0,259.2)" d="M455.59159 135.068H445.59159"/>
<path transform="matrix(1,0,0,-1,0,259.2)" stroke-width="1" stroke-linecap="butt" stroke-linejoin="round" fill="none" stroke="#000000" d="M455.59159 135.068H445.59159"/>
</g>
<path transform="matrix(1,0,0,-1,0,259.2)" stroke-width=".8" stroke-linecap="square" stroke-miterlimit="10" stroke-linejoin="miter" fill="none" stroke="#000000" d="M72.02 33.064V248.4"/>
<path transform="matrix(1,0,0,-1,0,259.2)" stroke-width=".8" stroke-linecap="square" stroke-miterlimit="10" stroke-linejoin="miter" fill="none" stroke="#000000" d="M493.72 33.064V248.4"/>
<path transform="matrix(1,0,0,-1,0,259.2)" stroke-width=".8" stroke-linecap="square" stroke-miterlimit="10" stroke-linejoin="miter" fill="none" stroke="#000000" d="M72.02 33.064H493.72"/>
<path transform="matrix(1,0,0,-1,0,259.2)" stroke-width=".8" stroke-linecap="square" stroke-miterlimit="10" stroke-linejoin="miter" fill="none" stroke="#000000" d="M72.02 248.4H493.72"/>
</svg>
